<svg xmlns="http://www.w3.org/2000/svg" xmlns:xlink="http://www.w3.org/1999/xlink" viewBox="0 0 280 280" width="280" height="280" preserveAspectRatio="xMidYMid slice" style="width: 100%; height: 100%; transform: translate3d(0px, 0px, 0px); content-visibility: visible;"><defs><clipPath id="__lottie_element_368"><rect width="280" height="280" x="0" y="0"></rect></clipPath><symbol id="__lottie_element_369"><g><g style="display: block;" transform="matrix(0.9638974070549011,0,0,0.9638974070549011,24.332313537597656,24.332313537597656)" opacity="1"><g opacity="1" transform="matrix(1,0,0,1,120,120)"><path fill="rgb(255,255,255)" fill-opacity="1" d=" M40,0 C40,22.090999603271484 22.090999603271484,40 0,40 C-22.090999603271484,40 -40,22.090999603271484 -40,0 C-40,-22.090999603271484 -22.090999603271484,-40 0,-40 C22.090999603271484,-40 40,-22.090999603271484 40,0z"></path></g></g></g></symbol><linearGradient id="__lottie_element_375" spreadMethod="pad" gradientUnits="userSpaceOnUse" x1="-119" y1="0" x2="119.5" y2="0"><stop offset="0%" stop-color="rgb(0,0,210)"></stop><stop offset="50%" stop-color="rgb(0,0,233)"></stop><stop offset="100%" stop-color="rgb(0,0,255)"></stop></linearGradient><filter id="__lottie_element_376" filterUnits="objectBoundingBox" x="0%" y="0%" width="100%" height="100%"><feComponentTransfer in="SourceGraphic"><feFuncA type="table" tableValues="1.0 0.0"></feFuncA></feComponentTransfer></filter><mask id="__lottie_element_369_2" mask-type="alpha"><g filter="url(#__lottie_element_376)"><rect width="280" height="280" x="0" y="0" fill="#ffffff" opacity="0"></rect><use xlink:href="#__lottie_element_369"></use></g></mask></defs><g clip-path="url(#__lottie_element_368)"><g mask="url(#__lottie_element_369_2)" style="display: block;"><g transform="matrix(1.021174430847168,0,0,1.021174430847168,17.459068298339844,17.459068298339844)" opacity="1"><g opacity="1" transform="matrix(1,0,0,1,120,120)"><path fill="url(#__lottie_element_375)" fill-opacity="1" d=" M0,-120 C-66.2750015258789,-120 -120,-66.27400207519531 -120,0 C-120,66.2750015258789 -66.2750015258789,120 0,120 C66.27400207519531,120 120,66.2750015258789 120,0 C120,-66.27400207519531 66.27400207519531,-120 0,-120z"></path></g></g></g></g></svg>